<mxfile host="app.diagrams.net" modified="2023-03-20T01:53:55.770Z" agent="5.0 (Windows NT 10.0; Win64; x64) AppleWebKit/537.36 (KHTML, like Gecko) Chrome/101.0.0.0 Safari/537.36" etag="cLkykLwLFs9V2JbYJO3m" version="21.0.8" type="github">
  <diagram id="C5RBs43oDa-KdzZeNtuy" name="Page-1">
    <mxGraphModel dx="1434" dy="796" grid="1" gridSize="10" guides="1" tooltips="1" connect="1" arrows="1" fold="1" page="1" pageScale="1" pageWidth="827" pageHeight="1169" math="0" shadow="0">
      <root>
        <mxCell id="WIyWlLk6GJQsqaUBKTNV-0" />
        <mxCell id="WIyWlLk6GJQsqaUBKTNV-1" parent="WIyWlLk6GJQsqaUBKTNV-0" />
        <mxCell id="Zyonf8nVlTRhwUEzLi20-5" style="edgeStyle=orthogonalEdgeStyle;rounded=0;orthogonalLoop=1;jettySize=auto;html=1;entryX=0.5;entryY=0;entryDx=0;entryDy=0;" edge="1" parent="WIyWlLk6GJQsqaUBKTNV-1" source="Zyonf8nVlTRhwUEzLi20-0" target="Zyonf8nVlTRhwUEzLi20-1">
          <mxGeometry relative="1" as="geometry" />
        </mxCell>
        <mxCell id="Zyonf8nVlTRhwUEzLi20-0" value="开始" style="ellipse;whiteSpace=wrap;html=1;" vertex="1" parent="WIyWlLk6GJQsqaUBKTNV-1">
          <mxGeometry x="340" y="140" width="90" height="50" as="geometry" />
        </mxCell>
        <mxCell id="Zyonf8nVlTRhwUEzLi20-6" style="edgeStyle=orthogonalEdgeStyle;rounded=0;orthogonalLoop=1;jettySize=auto;html=1;" edge="1" parent="WIyWlLk6GJQsqaUBKTNV-1" source="Zyonf8nVlTRhwUEzLi20-1" target="Zyonf8nVlTRhwUEzLi20-2">
          <mxGeometry relative="1" as="geometry" />
        </mxCell>
        <mxCell id="Zyonf8nVlTRhwUEzLi20-1" value="计算出扣量数n" style="rounded=1;whiteSpace=wrap;html=1;" vertex="1" parent="WIyWlLk6GJQsqaUBKTNV-1">
          <mxGeometry x="333.75" y="230" width="102.5" height="40" as="geometry" />
        </mxCell>
        <mxCell id="Zyonf8nVlTRhwUEzLi20-7" style="edgeStyle=orthogonalEdgeStyle;rounded=0;orthogonalLoop=1;jettySize=auto;html=1;" edge="1" parent="WIyWlLk6GJQsqaUBKTNV-1" source="Zyonf8nVlTRhwUEzLi20-2" target="Zyonf8nVlTRhwUEzLi20-3">
          <mxGeometry relative="1" as="geometry" />
        </mxCell>
        <mxCell id="Zyonf8nVlTRhwUEzLi20-2" value="将订单列表前n单标志为扣量" style="rounded=1;whiteSpace=wrap;html=1;" vertex="1" parent="WIyWlLk6GJQsqaUBKTNV-1">
          <mxGeometry x="333.75" y="320" width="102.5" height="40" as="geometry" />
        </mxCell>
        <mxCell id="Zyonf8nVlTRhwUEzLi20-8" style="edgeStyle=orthogonalEdgeStyle;rounded=0;orthogonalLoop=1;jettySize=auto;html=1;entryX=0.5;entryY=0;entryDx=0;entryDy=0;" edge="1" parent="WIyWlLk6GJQsqaUBKTNV-1" source="Zyonf8nVlTRhwUEzLi20-3" target="Zyonf8nVlTRhwUEzLi20-4">
          <mxGeometry relative="1" as="geometry" />
        </mxCell>
        <mxCell id="Zyonf8nVlTRhwUEzLi20-3" value="订单入库" style="rounded=1;whiteSpace=wrap;html=1;" vertex="1" parent="WIyWlLk6GJQsqaUBKTNV-1">
          <mxGeometry x="333.75" y="410" width="102.5" height="40" as="geometry" />
        </mxCell>
        <mxCell id="Zyonf8nVlTRhwUEzLi20-4" value="结束" style="ellipse;whiteSpace=wrap;html=1;" vertex="1" parent="WIyWlLk6GJQsqaUBKTNV-1">
          <mxGeometry x="340" y="500" width="90" height="50" as="geometry" />
        </mxCell>
      </root>
    </mxGraphModel>
  </diagram>
</mxfile>
